<?xml version="1.0" standalone="no"?>
<!DOCTYPE svg PUBLIC "-//W3C//DTD SVG 20010904//EN"
 "http://www.w3.org/TR/2001/REC-SVG-20010904/DTD/svg10.dtd">
<svg version="1.0" xmlns="http://www.w3.org/2000/svg"
 width="222.000000pt" height="227.000000pt" viewBox="0 0 222.000000 227.000000"
 preserveAspectRatio="xMidYMid meet">

<g transform="translate(0.000000,227.000000) scale(0.100000,-0.100000)"
fill="#000000" stroke="none">
<path d="M284 2261 c-30 -13 -62 -57 -75 -103 -14 -54 -5 -59 11 -6 13 44 46
99 58 96 4 -1 15 2 25 7 10 4 35 4 55 1 39 -8 72 -12 111 -14 15 -1 21 -7 18
-16 -4 -9 2 -12 21 -10 39 4 110 -35 134 -74 27 -45 27 -133 0 -219 -11 -34
-17 -65 -13 -68 10 -11 59 209 49 222 -7 8 1 13 29 16 l38 4 -35 1 c-29 2 -38
8 -55 39 -36 67 -147 116 -289 128 -34 3 -71 1 -82 -4z"/>
<path d="M985 2226 c-32 -14 -105 -89 -105 -108 0 -6 7 -4 18 5 23 21 29 21
29 0 0 -24 -27 -54 -41 -46 -6 3 -8 2 -3 -2 4 -5 17 -10 29 -12 31 -5 124 -48
155 -73 14 -11 29 -17 34 -14 5 3 9 2 7 -3 -3 -15 91 -105 103 -98 6 4 29 35
50 68 56 87 54 116 -14 182 -57 56 -165 115 -206 115 -14 -1 -39 -7 -56 -14z
m35 -16 c-8 -5 -24 -10 -35 -10 -27 0 -3 15 27 17 18 2 20 0 8 -7z m75 0 c3
-5 1 -10 -4 -10 -6 0 -11 5 -11 10 0 6 2 10 4 10 3 0 8 -4 11 -10z m43 -40
c-7 -10 -14 -17 -17 -15 -4 4 18 35 25 35 2 0 -1 -9 -8 -20z m47 -8 c-3 -3
-11 0 -18 7 -9 10 -8 11 6 5 10 -3 15 -9 12 -12z m-245 -2 c0 -5 -4 -10 -10
-10 -5 0 -10 5 -10 10 0 6 5 10 10 10 6 0 10 -4 10 -10z m11 -23 c-10 -9 -11
-8 -5 6 3 10 9 15 12 12 3 -3 0 -11 -7 -18z m234 3 c-3 -5 -12 -10 -18 -10 -7
0 -6 4 3 10 19 12 23 12 15 0z m-35 -14 c0 -2 -7 -7 -16 -10 -8 -3 -12 -2 -9
4 6 10 25 14 25 6z m116 -38 c19 -23 19 -23 -1 -7 -11 9 -27 14 -35 12 -13 -4
-13 -3 0 6 8 6 15 11 16 11 0 0 9 -10 20 -22z m-52 -4 c3 -8 2 -12 -4 -9 -6 3
-10 10 -10 16 0 14 7 11 14 -7z m76 -61 c0 -8 -5 -24 -11 -35 -8 -16 -13 -18
-19 -8 -5 7 -6 20 -3 27 5 12 7 12 14 1 6 -9 9 -6 9 10 0 13 -4 21 -8 18 -5
-3 -9 1 -9 9 0 11 4 12 14 4 7 -6 13 -18 13 -26z m-43 21 c-3 -3 -12 -4 -19
-1 -8 3 -5 6 6 6 11 1 17 -2 13 -5z m-22 -44 c3 -5 1 -10 -4 -10 -6 0 -11 5
-11 10 0 6 2 10 4 10 3 0 8 -4 11 -10z m-37 -76 c-12 -12 -17 -13 -23 -3 -5 8
-4 10 4 5 6 -4 14 0 17 9 4 9 9 13 12 10 3 -3 -1 -13 -10 -21z m43 -7 c-14
-14 -43 -18 -35 -6 3 5 10 6 16 3 7 -5 9 -1 5 9 -4 11 -2 14 9 10 11 -4 12 -9
5 -16z"/>
<path d="M861 2095 c-22 -28 -24 -39 -4 -22 11 9 27 17 36 17 9 0 17 4 17 9 0
13 -39 10 -49 -4z"/>
<path d="M181 2020 c-20 -142 -20 -151 -11 -175 12 -32 48 -40 93 -21 27 11
37 11 41 3 3 -7 5 -6 5 3 1 8 31 30 69 48 50 24 82 32 127 34 59 1 59 1 15 7
-55 8 -100 -5 -209 -58 -64 -31 -88 -38 -98 -30 -7 6 -13 8 -13 3 0 -4 -5 -3
-12 4 -13 13 -12 105 3 184 6 31 9 62 7 70 -3 7 -10 -25 -17 -72z"/>
<path d="M705 2070 c3 -5 8 -10 11 -10 2 0 4 5 4 10 0 6 -5 10 -11 10 -5 0 -7
-4 -4 -10z"/>
<path d="M292 1790 c0 -14 2 -19 5 -12 2 6 2 18 0 25 -3 6 -5 1 -5 -13z"/>
<path d="M346 1756 c3 -8 13 -17 22 -21 13 -5 13 -2 -3 15 -21 24 -26 25 -19
6z"/>
<path d="M826 1753 c-11 -3 -26 -11 -33 -18 -14 -15 -18 -92 -5 -112 9 -14 72
-20 90 -9 7 4 12 2 12 -6 0 -8 6 -7 17 5 28 27 23 87 -9 120 -26 27 -35 29
-72 20z m62 -45 c6 -13 12 -35 15 -50 4 -26 2 -28 -27 -27 -24 1 -26 3 -8 6
19 4 23 10 20 36 -3 33 -2 32 -70 36 -36 2 -17 21 20 21 30 0 41 -5 50 -22z
m-71 -28 c1 -11 -2 -20 -7 -20 -6 0 -7 17 -1 38 3 8 7 -1 8 -18z m23 -45 c0
-2 -9 -3 -19 -2 -11 0 -18 5 -15 9 4 6 34 0 34 -7z"/>
<path d="M292 1685 c0 -16 2 -22 5 -12 2 9 2 23 0 30 -3 6 -5 -1 -5 -18z"/>
<path d="M1144 1666 c-10 -26 4 -48 28 -44 17 2 23 10 23 28 0 18 -6 26 -23
28 -13 2 -25 -3 -28 -12z"/>
<path d="M959 1623 c-13 -16 -12 -17 4 -4 9 7 17 15 17 17 0 8 -8 3 -21 -13z"/>
<path d="M926 1593 c-6 -14 -5 -15 5 -6 7 7 10 15 7 18 -3 3 -9 -2 -12 -12z"/>
<path d="M330 1551 c0 -6 4 -13 10 -16 6 -3 7 1 4 9 -7 18 -14 21 -14 7z"/>
<path d="M1261 1540 c14 -31 19 -36 19 -24 0 6 -7 19 -16 30 -14 18 -14 18 -3
-6z"/>
<path d="M1088 1522 c-14 -2 -29 -10 -32 -17 -5 -14 18 -45 34 -45 5 0 12 -9
15 -20 4 -14 15 -20 35 -20 19 0 33 7 40 20 6 11 17 20 25 20 18 0 20 36 3 46
-17 11 -87 20 -120 16z"/>
<path d="M1282 1475 c0 -16 2 -22 5 -12 2 9 2 23 0 30 -3 6 -5 -1 -5 -18z"/>
<path d="M410 1448 c41 -45 50 -53 50 -45 0 2 -21 23 -47 47 l-48 45 45 -47z"/>
<path d="M1256 1393 c-6 -14 -5 -15 5 -6 7 7 10 15 7 18 -3 3 -9 -2 -12 -12z"/>
<path d="M470 1396 c0 -2 8 -10 18 -17 15 -13 16 -12 3 4 -13 16 -21 21 -21
13z"/>
<path d="M531 1355 c1 -5 -3 -28 -9 -49 -7 -23 -8 -45 -3 -55 6 -10 9 -4 9 22
0 21 6 44 13 53 10 12 10 17 0 27 -7 7 -11 8 -10 2z"/>
<path d="M1209 1333 l-24 -28 28 24 c25 23 32 31 24 31 -2 0 -14 -12 -28 -27z"/>
<path d="M567 1329 c7 -7 15 -10 18 -7 3 3 -2 9 -12 12 -14 6 -15 5 -6 -5z"/>
<path d="M1154 1294 c-18 -14 -18 -15 4 -4 12 6 22 13 22 15 0 8 -5 6 -26 -11z"/>
<path d="M1773 1303 c9 -2 25 -2 35 0 9 3 1 5 -18 5 -19 0 -27 -2 -17 -5z"/>
<path d="M1709 1273 c-13 -16 -12 -17 4 -4 16 13 21 21 13 21 -2 0 -10 -8 -17
-17z"/>
<path d="M1866 1265 c24 -39 24 -40 24 -28 0 6 -9 21 -21 34 l-20 24 17 -30z"/>
<path d="M740 1250 c10 -18 7 -20 -22 -21 -27 -2 -28 -3 -8 -6 14 -2 37 1 50
6 20 8 21 10 6 10 -12 1 -16 6 -12 16 3 9 0 15 -10 15 -12 0 -12 -4 -4 -20z"/>
<path d="M790 1253 c5 -2 8 -9 4 -14 -3 -5 0 -9 6 -9 15 0 7 23 -8 26 -7 1 -8
0 -2 -3z"/>
<path d="M578 1243 c7 -3 16 -2 19 1 4 3 -2 6 -13 5 -11 0 -14 -3 -6 -6z"/>
<path d="M828 1243 c6 -2 18 -2 25 0 6 3 1 5 -13 5 -14 0 -19 -2 -12 -5z"/>
<path d="M1028 1243 c7 -3 16 -2 19 1 4 3 -2 6 -13 5 -11 0 -14 -3 -6 -6z"/>
<path d="M618 1233 c6 -2 18 -2 25 0 6 3 1 5 -13 5 -14 0 -19 -2 -12 -5z"/>
<path d="M1175 1200 c10 -11 20 -20 23 -20 3 0 -3 9 -13 20 -10 11 -20 20 -23
20 -3 0 3 -9 13 -20z"/>
<path d="M1691 1160 c1 -8 -2 -23 -6 -34 -5 -11 -4 -26 2 -36 9 -13 6 -24 -14
-49 l-25 -32 -24 22 c-13 12 -30 19 -39 15 -16 -6 -19 -12 -29 -58 -4 -16 -12
-28 -19 -28 -8 0 -23 -11 -34 -23 -17 -20 -18 -26 -7 -42 10 -13 21 -16 42
-12 24 5 33 1 52 -25 l22 -30 -23 6 c-31 9 -4 -9 30 -19 22 -7 20 -3 -14 39
-32 37 -43 44 -63 39 -15 -3 -27 -1 -32 8 -11 17 6 49 26 49 8 0 17 7 20 15
10 25 43 38 60 24 8 -6 16 -10 18 -8 48 51 75 94 66 103 -14 14 -13 43 2 48 8
3 8 9 -1 24 -7 12 -11 14 -10 4z m-68 -140 c22 -26 22 -33 -2 -20 -11 5 -27 7
-35 4 -10 -4 -16 -1 -16 8 0 33 28 37 53 8z"/>
<path d="M1861 1136 c-9 -11 -8 -15 4 -20 11 -4 14 -13 10 -25 -4 -13 6 -36
30 -70 49 -68 55 -65 9 3 -20 30 -33 60 -29 66 4 6 1 17 -5 25 -6 8 -9 19 -5
25 9 15 -1 12 -14 -4z"/>
<path d="M1241 1138 c2 -2 20 -16 39 -33 l35 -30 -29 33 c-17 17 -34 32 -40
32 -5 0 -7 -1 -5 -2z"/>
<path d="M1755 1100 c3 -5 11 -10 17 -10 6 0 20 -8 30 -17 18 -16 18 -16 12 1
-4 11 -1 21 7 27 9 6 10 9 2 9 -6 0 -15 -5 -18 -10 -4 -7 -12 -7 -25 0 -24 13
-33 13 -25 0z"/>
<path d="M1794 1033 c-12 -2 -30 -13 -40 -24 -9 -10 -23 -19 -30 -19 -21 0
-34 -32 -22 -53 7 -13 7 -17 0 -13 -6 3 -14 1 -17 -5 -4 -5 -14 -8 -22 -4 -9
3 2 -14 23 -37 21 -24 45 -43 52 -43 8 0 21 -9 29 -20 14 -18 15 -18 9 -2 -3
10 -9 36 -12 58 -5 31 -3 40 10 45 10 4 22 2 29 -5 12 -12 87 -16 87 -4 0 4
-18 33 -40 64 -22 31 -37 59 -33 63 3 3 4 5 2 5 -2 -1 -14 -4 -25 -6z m0 -28
c-22 -17 -34 -19 -34 -6 0 5 8 12 18 14 32 9 36 7 16 -8z m37 -22 c12 -15 12
-16 -4 -10 -10 4 -23 7 -28 7 -5 0 -9 5 -9 10 0 16 26 12 41 -7z m-68 -20 c-2
-9 4 -10 24 -2 19 7 29 7 31 0 2 -6 8 -9 13 -5 16 10 9 -23 -8 -37 -15 -12
-16 -12 -10 3 3 10 1 20 -5 24 -7 5 -8 2 -3 -6 6 -10 2 -11 -19 -6 -16 4 -25
3 -22 -2 3 -6 -4 -12 -17 -16 -18 -5 -19 -8 -7 -16 13 -8 12 -11 -5 -24 -18
-13 -22 -13 -37 1 -22 20 -23 33 -3 33 9 0 15 -10 16 -22 1 -16 4 -12 9 12 5
21 5 36 -1 38 -5 2 -9 13 -9 23 0 16 6 20 28 17 15 -2 26 -8 25 -15z m107 -38
c10 -13 9 -15 -8 -15 -15 0 -20 5 -16 15 4 8 7 15 9 15 1 0 8 -7 15 -15z
m-116 -73 c2 -4 -4 -9 -15 -9 -11 -1 -17 2 -14 8 7 11 22 12 29 1z"/>
<path d="M1322 1000 c0 -14 2 -19 5 -12 2 6 2 18 0 25 -3 6 -5 1 -5 -13z"/>
<path d="M1299 937 c-15 -21 -14 -26 13 -82 30 -64 32 -58 2 14 -14 35 -15 47
-5 63 17 28 10 31 -10 5z"/>
<path d="M1966 943 c18 -13 15 -16 -31 -26 -15 -4 -14 -5 6 -6 15 0 32 6 39
14 16 19 39 19 46 0 4 -8 10 -12 15 -9 5 3 12 -2 15 -10 3 -9 19 -22 36 -30
26 -14 28 -14 18 -1 -7 8 -16 15 -20 15 -4 0 -22 13 -39 29 -18 17 -45 30 -67
33 -31 4 -34 3 -18 -9z"/>
<path d="M22 908 c-7 -7 -12 -16 -12 -22 0 -5 6 -1 14 10 12 16 15 16 19 4 3
-8 8 -22 10 -30 4 -10 6 -8 6 6 1 29 -21 48 -37 32z"/>
<path d="M1445 910 c-3 -6 1 -7 9 -4 18 7 21 14 7 14 -6 0 -13 -4 -16 -10z"/>
<path d="M1279 856 c14 -31 26 -54 28 -52 6 6 -34 100 -44 103 -5 2 2 -21 16
-51z"/>
<path d="M1118 893 c6 -2 18 -2 25 0 6 3 1 5 -13 5 -14 0 -19 -2 -12 -5z"/>
<path d="M1208 893 c7 -3 16 -2 19 1 4 3 -2 6 -13 5 -11 0 -14 -3 -6 -6z"/>
<path d="M2026 884 c-3 -9 -2 -22 2 -31 6 -10 9 -5 9 16 0 35 -2 38 -11 15z"/>
<path d="M1063 875 c-3 -9 -3 -19 1 -22 3 -4 6 1 6 10 0 8 8 18 18 20 16 4 16
5 -1 6 -10 0 -20 -6 -24 -14z"/>
<path d="M1431 873 c0 -12 -5 -25 -11 -28 -5 -3 -10 -11 -10 -18 0 -6 7 -1 16
11 8 12 13 30 11 40 -4 13 -5 12 -6 -5z"/>
<path d="M3 830 c0 -25 2 -35 4 -22 2 12 2 32 0 45 -2 12 -4 2 -4 -23z"/>
<path d="M1530 850 c8 -5 20 -10 25 -10 6 0 3 5 -5 10 -8 5 -19 10 -25 10 -5
0 -3 -5 5 -10z"/>
<path d="M330 810 c-6 -11 -8 -20 -6 -20 3 0 10 9 16 20 6 11 8 20 6 20 -3 0
-10 -9 -16 -20z"/>
<path d="M1838 823 c-10 -2 -18 -11 -18 -18 0 -7 -6 -16 -12 -18 -7 -3 25 -6
72 -6 55 0 80 3 71 8 -12 8 -12 12 -2 25 12 14 8 16 -40 15 -30 -1 -62 -3 -71
-6z m96 -18 c-4 -10 -20 -15 -45 -15 -28 0 -39 4 -39 15 0 11 12 15 45 15 35
0 43 -3 39 -15z"/>
<path d="M1970 821 c0 -5 5 -13 10 -16 6 -3 10 -2 10 4 0 5 -4 13 -10 16 -5 3
-10 2 -10 -4z"/>
<path d="M2043 814 c0 -7 5 -10 11 -6 6 3 22 5 36 3 35 -4 21 6 -16 12 -21 3
-31 1 -31 -9z"/>
<path d="M70 816 c0 -4 7 -18 16 -31 9 -13 12 -30 8 -36 -4 -7 -3 -10 2 -7 11
7 35 -17 26 -27 -4 -4 -2 -6 3 -4 18 4 45 -13 38 -24 -3 -5 -1 -7 4 -4 6 4 21
-1 34 -11 31 -23 76 -42 97 -41 12 0 11 3 -5 9 -23 9 -32 40 -12 40 5 0 7 5 3
11 -4 8 -10 5 -17 -7 -5 -11 -11 -20 -13 -22 -4 -6 -61 27 -94 55 -18 15 -46
45 -61 67 -16 21 -29 36 -29 32z"/>
<path d="M1052 775 c0 -16 2 -22 5 -12 2 9 2 23 0 30 -3 6 -5 -1 -5 -18z"/>
<path d="M1640 790 c-12 -8 -10 -10 8 -10 13 0 20 4 17 10 -7 12 -6 12 -25 0z"/>
<path d="M1983 793 c-23 -9 -14 -20 12 -15 14 2 25 8 25 13 0 10 -17 11 -37 2z"/>
<path d="M1310 785 c0 -5 5 -17 10 -25 5 -8 10 -10 10 -5 0 6 -5 17 -10 25 -5
8 -10 11 -10 5z"/>
<path d="M1363 783 c15 -2 39 -2 55 0 15 2 2 4 -28 4 -30 0 -43 -2 -27 -4z"/>
<path d="M1468 783 c12 -2 32 -2 45 0 12 2 2 4 -23 4 -25 0 -35 -2 -22 -4z"/>
<path d="M1583 783 c9 -2 23 -2 30 0 6 3 -1 5 -18 5 -16 0 -22 -2 -12 -5z"/>
<path d="M1708 783 c18 -2 45 -2 60 0 15 2 0 4 -33 4 -33 0 -45 -2 -27 -4z"/>
<path d="M2048 783 c12 -2 30 -2 40 0 9 3 -1 5 -23 4 -22 0 -30 -2 -17 -4z"/>
<path d="M2128 783 c6 -2 18 -2 25 0 6 3 1 5 -13 5 -14 0 -19 -2 -12 -5z"/>
<path d="M2188 783 c12 -2 22 -9 22 -14 0 -5 -170 -9 -425 -9 -398 0 -425 -1
-424 -17 0 -11 3 -13 6 -5 6 15 33 16 33 1 0 -8 4 -8 14 0 16 14 89 10 75 -4
-16 -16 -10 -23 16 -20 14 1 25 -2 25 -6 0 -5 -9 -9 -21 -9 -18 0 -20 -4 -15
-26 6 -23 4 -25 -20 -22 -17 2 -29 -2 -32 -11 -3 -9 0 -11 8 -6 10 6 12 4 7
-8 -7 -20 13 -71 30 -74 7 -2 10 4 7 12 -4 8 -10 15 -16 15 -5 0 -7 4 -4 9 4
5 0 12 -6 15 -9 3 -7 9 7 20 37 28 45 37 45 47 0 6 -4 7 -10 4 -5 -3 -10 -2
-10 3 0 5 9 12 20 15 11 3 20 1 20 -5 0 -5 5 -6 11 -2 8 4 7 9 -2 15 -10 6 -8
9 8 9 17 0 20 4 16 21 -5 19 -4 20 16 8 11 -8 21 -17 21 -21 0 -5 7 -8 16 -8
8 0 13 4 10 9 -9 14 19 31 46 29 14 -1 25 -8 25 -15 0 -6 -3 -10 -7 -8 -3 2
-12 0 -20 -6 -10 -6 13 -9 68 -9 48 0 82 4 82 10 0 6 -4 10 -10 10 -5 0 -10 5
-10 10 0 6 9 10 21 10 16 0 19 -4 14 -20 -4 -14 -2 -20 8 -20 8 0 14 8 13 18
-1 14 9 17 62 19 62 2 72 -3 50 -25 -9 -9 -8 -12 4 -12 9 0 18 9 21 20 3 11
12 20 20 20 10 0 15 -7 12 -20 -3 -16 2 -20 21 -20 23 0 24 1 9 16 -9 9 -13
19 -10 22 3 4 11 0 16 -8 8 -11 12 -12 16 -2 7 18 44 15 60 -5 13 -16 14 -16
9 -1 -4 13 2 18 27 20 39 4 45 32 7 35 -22 1 -22 1 -2 -4z m-653 -43 c-3 -5
-2 -10 4 -10 5 0 12 6 14 13 3 7 6 6 6 -5 1 -12 -7 -16 -29 -16 -24 1 -28 4
-19 15 13 15 33 18 24 3z m98 -1 c-8 -8 -16 -8 -30 0 -16 9 -14 10 12 11 21 0
26 -3 18 -11z m130 -5 c-3 -8 -14 -14 -24 -14 -10 0 -19 6 -19 14 0 8 10 14
24 14 17 0 23 -5 19 -14z"/>
<path d="M11 760 c-1 -25 48 -122 84 -165 18 -23 55 -52 82 -66 26 -13 51 -28
55 -34 5 -6 8 -4 8 5 0 8 -20 23 -45 33 -24 10 -43 24 -42 30 1 6 -3 11 -10
12 -25 1 -94 91 -86 112 4 11 2 14 -5 9 -7 -4 -12 -2 -12 4 0 6 7 13 15 16 8
4 15 11 15 16 0 6 -7 5 -15 -2 -18 -15 -21 -13 -34 20 -5 14 -10 18 -10 10z"/>
<path d="M1332 730 c24 -64 61 -150 64 -147 5 4 -53 148 -63 156 -3 3 -4 -1
-1 -9z"/>
<path d="M2011 724 c0 -11 3 -14 6 -6 3 7 2 16 -1 19 -3 4 -6 -2 -5 -13z"/>
<path d="M1416 721 c-9 -14 5 -42 17 -34 7 4 8 -1 4 -13 -7 -18 -6 -18 7 -1
15 19 31 24 20 5 -4 -7 -3 -8 5 -4 17 11 3 26 -24 26 -18 0 -23 4 -19 15 7 16
-1 21 -10 6z"/>
<path d="M1920 720 c0 -5 5 -10 11 -10 5 0 7 5 4 10 -3 6 -8 10 -11 10 -2 0
-4 -4 -4 -10z"/>
<path d="M1375 700 c14 -46 77 -191 81 -187 3 2 -14 49 -37 103 -40 98 -59
133 -44 84z"/>
<path d="M2136 707 c5 -14 2 -16 -12 -10 -17 6 -18 5 -5 -11 13 -16 15 -16 24
-1 6 11 5 21 -3 28 -8 9 -10 8 -4 -6z"/>
<path d="M1042 690 c0 -14 2 -19 5 -12 2 6 2 18 0 25 -3 6 -5 1 -5 -13z"/>
<path d="M1574 666 c0 -29 3 -33 23 -31 13 1 23 -2 23 -6 0 -9 -8 -11 -65 -11
-48 0 -48 0 -31 17 8 8 22 15 30 15 9 0 16 7 16 15 0 22 -18 18 -43 -8 -12
-13 -31 -29 -42 -35 -19 -11 -18 -11 8 -12 15 0 27 -3 27 -7 0 -5 11 -13 25
-20 22 -10 27 -8 40 10 12 17 15 18 15 5 0 -28 30 -29 73 -3 23 14 36 25 30
25 -7 0 -16 -1 -19 -2 -3 -2 -11 8 -18 21 -8 14 -16 19 -20 13 -3 -6 -2 -13 4
-17 16 -10 12 -42 -6 -49 -9 -3 -20 -3 -25 0 -14 8 1 26 17 20 8 -3 14 -1 14
4 0 6 -4 10 -9 10 -10 0 -26 36 -30 70 0 6 -9 10 -19 10 -14 0 -18 -8 -18 -34z
m31 -16 c3 -5 1 -10 -4 -10 -6 0 -11 5 -11 10 0 6 2 10 4 10 3 0 8 -4 11 -10z
m-25 -50 c0 -5 -4 -10 -10 -10 -5 0 -10 5 -10 10 0 6 5 10 10 10 6 0 10 -4 10
-10z"/>
<path d="M1719 691 c7 -5 17 -15 22 -22 6 -10 9 -8 9 9 0 16 -6 22 -22 22 -17
0 -19 -3 -9 -9z"/>
<path d="M1800 693 c1 -16 39 -88 40 -74 0 9 10 12 35 9 27 -3 35 0 35 12 0
11 2 12 8 2 5 -7 16 -10 25 -6 10 3 17 1 17 -5 0 -6 -3 -10 -7 -10 -29 5 -42
-4 -46 -28 l-4 -28 -2 28 c-1 22 -6 27 -26 27 -27 0 -35 -26 -13 -48 9 -9 9
-12 1 -12 -7 0 -15 5 -18 10 -9 15 -65 12 -81 -5 -14 -13 -11 -15 28 -14 40 1
41 2 13 9 l-30 8 33 1 c17 0 32 -3 32 -8 0 -5 25 -10 56 -10 45 0 55 3 50 15
-3 8 -2 13 3 10 5 -3 14 15 21 40 9 33 16 42 22 32 7 -9 8 -5 4 12 -3 14 -6
30 -7 35 0 6 -4 -1 -8 -15 -9 -32 -46 -39 -60 -12 -6 11 -9 21 -7 23 3 2 -9 5
-25 6 -24 2 -29 -2 -29 -20 0 -18 2 -19 11 -7 9 12 10 12 7 1 -7 -26 -28 -24
-28 3 0 21 -5 26 -25 26 -14 0 -25 -3 -25 -7z m40 -19 c0 -8 -5 -12 -10 -9 -6
4 -8 11 -5 16 9 14 15 11 15 -7z m65 -4 c3 -5 1 -10 -4 -10 -6 0 -11 5 -11 10
0 6 2 10 4 10 3 0 8 -4 11 -10z m-18 -86 c-9 -9 -28 6 -21 18 4 6 10 6 17 -1
6 -6 8 -13 4 -17z"/>
<path d="M2000 690 c0 -6 5 -10 11 -10 6 0 9 -10 7 -23 -3 -14 0 -24 7 -24 6
0 9 12 7 29 -4 28 12 39 21 16 4 -9 8 -10 14 -2 4 6 15 13 23 16 8 3 -9 6 -37
6 -29 1 -53 -3 -53 -8z"/>
<path d="M366 667 c3 -10 9 -15 12 -12 3 3 0 11 -7 18 -10 9 -11 8 -5 -6z"/>
<path d="M1772 660 c0 -14 2 -19 5 -12 2 6 2 18 0 25 -3 6 -5 1 -5 -13z"/>
<path d="M1701 654 c0 -11 3 -14 6 -6 3 7 2 16 -1 19 -3 4 -6 -2 -5 -13z"/>
<path d="M2110 660 c0 -5 5 -10 11 -10 5 0 7 5 4 10 -3 6 -8 10 -11 10 -2 0
-4 -4 -4 -10z"/>
<path d="M1031 644 c0 -11 3 -14 6 -6 3 7 2 16 -1 19 -3 4 -6 -2 -5 -13z"/>
<path d="M2050 640 c7 -14 7 -20 0 -20 -6 0 -8 -12 -5 -27 l5 -28 -11 28 c-6
15 -18 27 -27 27 -15 0 -15 -2 -2 -10 13 -8 12 -10 -2 -10 -10 0 -18 6 -18 13
-1 15 -15 -8 -24 -40 -7 -20 -4 -22 48 -22 47 0 54 3 50 17 -5 14 -3 14 6 -1
7 -10 10 -21 7 -23 -3 -3 -37 -5 -77 -6 -72 -1 -73 -2 -52 -19 22 -17 29 -39
13 -39 -5 0 -12 7 -15 16 -9 24 -19 10 -11 -15 8 -26 40 -27 55 -3 10 15 11
15 7 -4 -3 -17 0 -20 13 -17 10 3 20 1 23 -4 3 -5 -16 -9 -43 -10 -40 0 -51 3
-55 18 -4 11 -14 19 -24 19 -21 0 -44 -23 -34 -33 3 -4 -8 -7 -26 -7 -18 0
-30 4 -26 9 3 5 -2 17 -11 25 -14 15 -14 16 0 16 9 0 16 -7 16 -16 0 -22 44
-14 48 9 3 16 1 17 -17 7 -12 -6 -21 -7 -20 -3 1 4 -2 18 -6 31 -7 21 -13 23
-64 21 -44 -2 -61 -7 -78 -26 -13 -13 -23 -20 -23 -16 0 4 -4 1 -10 -7 -6 -9
-5 -17 3 -22 8 -5 7 -8 -5 -8 -9 0 -19 -6 -22 -12 -4 -7 -4 -3 -2 9 3 15 0 20
-10 16 -8 -3 -14 0 -14 5 0 6 -8 10 -18 9 -11 0 -18 -9 -18 -21 1 -18 -6 -21
-42 -23 -40 -1 -45 1 -54 28 -6 17 -12 28 -14 26 -2 -2 1 -18 7 -35 l11 -32
295 0 c193 0 292 -3 288 -10 -3 -5 -1 -10 4 -10 6 0 11 7 11 15 0 8 -6 15 -13
15 -8 0 -19 12 -25 26 -7 15 -17 22 -24 18 -7 -5 -8 -3 -4 5 6 9 13 8 29 -6
19 -17 20 -17 14 0 -4 9 -2 17 5 17 6 0 5 6 -3 17 -12 15 -12 16 3 11 19 -8
31 14 21 39 -5 12 -3 14 7 8 8 -5 11 -3 8 6 -3 8 -12 13 -21 13 -9 -1 -14 3
-11 8 4 5 14 8 24 5 14 -3 17 -1 13 11 -4 10 -2 13 5 8 7 -4 12 -3 12 3 0 6
-12 8 -30 5 -23 -5 -30 -3 -30 10 0 9 -5 16 -10 16 -7 0 -7 -6 0 -20z m-42
-75 c-3 -3 -9 2 -12 12 -6 14 -5 15 5 6 7 -7 10 -15 7 -18z m-238 -51 c0 -8 5
-12 10 -9 6 4 8 11 5 16 -4 5 3 9 13 9 11 0 22 -6 25 -14 7 -16 -34 -30 -63
-21 -13 4 -19 -1 -23 -25 -6 -27 -37 -45 -37 -20 0 6 7 10 15 10 8 0 15 5 15
10 0 6 -6 10 -14 10 -21 0 -31 21 -15 31 9 5 16 3 21 -9 5 -14 7 -13 7 6 1 26
41 32 41 6z m239 -2 c0 -11 -2 -12 -6 -4 -2 6 -9 10 -13 7 -5 -3 -11 -2 -14 3
-2 4 4 9 15 9 12 1 19 -4 18 -15z m-319 -52 c0 -14 -6 -20 -22 -19 -17 1 -19
2 -5 6 9 2 17 11 17 19 0 8 2 14 5 14 3 0 5 -9 5 -20z m116 -18 c-4 -3 -12 0
-17 8 -8 11 -12 12 -16 3 -2 -7 -12 -13 -21 -13 -13 0 -12 5 7 19 21 16 26 17
39 4 8 -7 11 -17 8 -21z m-186 8 c0 -5 -7 -10 -15 -10 -8 0 -15 5 -15 10 0 6
7 10 15 10 8 0 15 -4 15 -10z m305 0 c3 -5 -3 -10 -14 -10 -12 0 -21 5 -21 10
0 6 6 10 14 10 8 0 18 -4 21 -10z"/>
<path d="M1730 640 c-9 -6 -10 -10 -3 -10 6 0 15 5 18 10 8 12 4 12 -15 0z"/>
<path d="M1778 613 c6 -2 18 -2 25 0 6 3 1 5 -13 5 -14 0 -19 -2 -12 -5z"/>
<path d="M1530 565 c0 -8 2 -15 4 -15 2 0 6 7 10 15 3 8 1 15 -4 15 -6 0 -10
-7 -10 -15z"/>
<path d="M1406 552 c3 -13 17 -47 30 -75 13 -29 21 -41 18 -27 -4 14 -17 48
-30 75 -13 28 -21 39 -18 27z"/>
<path d="M1492 508 c6 -16 14 -25 21 -21 8 5 8 8 0 10 -6 2 -9 12 -6 22 3 11
-1 18 -10 18 -12 0 -13 -6 -5 -29z"/>
<path d="M1540 533 c0 -15 19 -37 26 -31 3 4 -1 14 -10 23 -9 9 -16 13 -16 8z"/>
<path d="M1573 515 c11 -23 13 -23 25 -8 6 9 12 22 12 27 0 6 -5 4 -11 -4 -8
-11 -12 -12 -16 -2 -2 6 -8 12 -13 12 -4 0 -3 -11 3 -25z"/>
<path d="M1660 530 c0 -5 5 -10 11 -10 5 0 7 5 4 10 -3 6 -8 10 -11 10 -2 0
-4 -4 -4 -10z"/>
<path d="M1845 529 c3 -4 15 -5 27 -1 12 3 19 1 15 -4 -3 -6 -2 -16 2 -23 6
-9 10 -6 13 11 4 22 1 25 -28 25 -18 0 -31 -4 -29 -8z"/>
<path d="M969 503 c-13 -16 -12 -17 4 -4 16 13 21 21 13 21 -2 0 -10 -8 -17
-17z"/>
<path d="M436 498 c3 -5 10 -6 15 -3 13 9 11 12 -6 12 -8 0 -12 -4 -9 -9z"/>
<path d="M410 493 c0 -6 8 -17 18 -24 16 -13 16 -13 2 6 -8 11 -16 22 -17 24
-2 2 -3 0 -3 -6z"/>
<path d="M939 463 c-13 -16 -12 -17 4 -4 16 13 21 21 13 21 -2 0 -10 -8 -17
-17z"/>
<path d="M1515 469 c-4 -6 -4 -13 -1 -16 3 -4 6 -2 6 4 0 6 12 8 26 5 19 -3
25 -1 20 7 -9 14 -43 14 -51 0z"/>
<path d="M913 425 c-3 -9 -3 -18 -1 -21 3 -3 8 4 11 16 6 23 -1 27 -10 5z"/>
<path d="M250 424 c0 -6 7 -19 16 -30 14 -18 14 -18 3 6 -14 31 -19 36 -19 24z"/>
<path d="M1461 415 c0 -5 11 -32 25 -60 13 -27 21 -39 18 -25 -7 29 -43 100
-43 85z"/>
<path d="M1960 410 l-45 -7 42 -1 c23 -1 45 3 48 8 3 6 5 9 3 8 -2 0 -23 -4
-48 -8z"/>
<path d="M1500 405 c0 -10 48 -134 84 -217 17 -40 32 -54 16 -15 -56 140 -99
240 -100 232z"/>
<path d="M1648 403 c6 -2 18 -2 25 0 6 3 1 5 -13 5 -14 0 -19 -2 -12 -5z"/>
<path d="M1778 403 c12 -2 32 -2 45 0 12 2 2 4 -23 4 -25 0 -35 -2 -22 -4z"/>
<path d="M911 374 c0 -11 3 -14 6 -6 3 7 2 16 -1 19 -3 4 -6 -2 -5 -13z"/>
<path d="M280 367 c0 -2 15 -16 33 -33 l32 -29 -29 33 c-28 30 -36 37 -36 29z"/>
<path d="M1513 288 c50 -126 62 -151 79 -156 21 -5 22 -7 7 -31 -29 -46 21
-98 70 -71 22 11 30 63 11 75 -28 18 2 25 115 28 l125 3 -127 -1 -128 0 0 -37
c0 -46 -17 -67 -40 -48 -17 14 -20 40 -5 40 6 0 10 11 10 25 0 14 1 26 3 27 1
1 81 5 177 8 l175 6 -176 2 c-145 2 -178 -1 -182 -12 -4 -9 -14 -12 -26 -9
-13 3 -29 30 -51 84 -18 43 -34 79 -37 79 -3 0 -3 -6 0 -12z"/>
<path d="M640 244 c1 -16 29 -60 29 -44 0 8 -6 24 -14 34 -8 11 -15 16 -15 10z"/>
<path d="M313 200 c0 -25 2 -35 4 -22 2 12 2 32 0 45 -2 12 -4 2 -4 -23z"/>
<path d="M1092 160 c0 -19 2 -27 5 -17 2 9 2 25 0 35 -3 9 -5 1 -5 -18z"/>
<path d="M1972 122 c-28 -43 -28 -68 1 -86 46 -31 98 18 68 65 -15 24 -14 27
7 32 12 3 11 5 -6 6 -22 1 -23 -2 -17 -38 8 -46 -7 -61 -29 -29 -9 12 -16 17
-16 11 0 -7 5 -15 10 -18 6 -3 10 -11 10 -18 0 -6 -8 -4 -17 6 -15 14 -15 21
-5 37 6 11 12 26 12 34 0 8 12 19 28 24 27 10 27 11 2 9 -17 -1 -33 -12 -48
-35z"/>
<path d="M350 95 c13 -14 26 -25 28 -25 3 0 -5 11 -18 25 -13 14 -26 25 -28
25 -3 0 5 -11 18 -25z"/>
<path d="M1054 78 l-19 -23 23 19 c21 18 27 26 19 26 -2 0 -12 -10 -23 -22z"/>
<path d="M1630 66 c7 -7 13 -7 20 0 6 6 3 10 -10 10 -13 0 -16 -4 -10 -10z"/>
<path d="M1004 44 c-18 -14 -18 -15 4 -4 12 6 22 13 22 15 0 8 -5 6 -26 -11z"/>
<path d="M518 13 c7 -3 16 -2 19 1 4 3 -2 6 -13 5 -11 0 -14 -3 -6 -6z"/>
<path d="M823 3 c15 -2 39 -2 55 0 15 2 2 4 -28 4 -30 0 -43 -2 -27 -4z"/>
</g>
</svg>
