<?xml version="1.0" standalone="no"?>
<!DOCTYPE svg PUBLIC "-//W3C//DTD SVG 20010904//EN"
 "http://www.w3.org/TR/2001/REC-SVG-20010904/DTD/svg10.dtd">
<svg version="1.0" xmlns="http://www.w3.org/2000/svg"
 width="216.000000pt" height="233.000000pt" viewBox="0 0 216.000000 233.000000"
 preserveAspectRatio="xMidYMid meet">

<g transform="translate(0.000000,233.000000) scale(0.100000,-0.100000)"
fill="#000000" stroke="none">
<path d="M1064 2173 c-33 -6 -76 -58 -83 -100 l-6 -38 -67 -7 c-36 -3 -87 -16
-113 -27 -26 -12 -49 -21 -50 -21 -2 0 -8 15 -15 34 -25 77 -94 103 -170 64
-35 -18 -54 -38 -86 -91 -34 -57 -49 -72 -90 -91 -129 -60 -169 -139 -128
-258 33 -99 144 -180 263 -194 l58 -6 22 -53 c12 -30 29 -59 37 -66 8 -6 14
-22 14 -34 0 -40 -48 -190 -91 -284 -36 -79 -45 -91 -67 -91 -37 0 -98 67
-113 124 -6 26 -15 44 -20 39 -14 -14 12 -81 48 -123 18 -21 49 -44 69 -50 25
-8 34 -16 30 -27 -3 -8 -6 -18 -6 -22 0 -15 -52 -31 -100 -31 -67 0 -90 23
-90 88 0 26 9 67 20 91 11 24 18 46 15 49 -9 9 -55 -103 -55 -135 0 -93 81
-138 177 -98 19 8 37 15 38 15 2 0 6 -15 9 -34 4 -18 20 -52 36 -74 l29 -40
-69 -65 c-80 -75 -92 -104 -64 -156 23 -43 74 -71 130 -71 46 0 94 30 94 60 0
9 6 23 14 29 8 7 25 36 37 66 l22 54 66 -5 c42 -4 86 0 121 10 30 8 58 12 62
8 3 -4 15 -42 26 -85 25 -96 42 -117 94 -117 112 0 190 102 124 163 -13 12
-32 40 -44 62 -11 22 -29 49 -41 59 -27 24 -26 28 4 74 13 20 31 63 39 95 8
31 18 62 22 69 4 6 -5 21 -21 34 -16 13 -26 26 -23 29 11 11 47 -14 72 -52 28
-41 23 -69 -5 -32 -10 13 -19 19 -19 12 0 -6 5 -15 10 -18 6 -3 10 -17 10 -30
0 -13 20 -82 45 -152 50 -140 51 -158 10 -223 -29 -46 -30 -50 -12 -50 9 0 13
-14 13 -46 -1 -56 18 -74 61 -59 18 7 35 24 48 52 l20 42 71 1 c39 0 73 -3 77
-6 3 -3 2 -17 -3 -30 -15 -39 4 -74 40 -74 36 0 80 38 80 70 0 13 10 24 27 31
23 8 25 12 12 24 -11 11 -57 16 -189 21 -202 7 -204 7 -190 31 5 10 14 30 20
46 9 25 13 27 66 27 40 0 63 -5 76 -17 16 -14 24 -15 52 -5 18 7 62 12 99 12
64 0 66 -1 69 -26 6 -56 81 -58 101 -4 8 21 18 30 35 30 20 0 21 3 12 20 -6
11 -18 20 -27 20 -14 0 -14 -2 3 -15 18 -15 17 -16 -16 -10 -26 5 -31 3 -20
-4 13 -9 13 -14 0 -38 -27 -48 -93 -38 -74 12 3 8 14 17 23 20 10 3 48 34 84
68 l67 63 0 86 0 85 -199 102 c-197 101 -242 134 -264 194 -3 9 -12 17 -18 17
-7 0 -9 -3 -6 -6 3 -4 0 -16 -8 -27 -13 -19 -11 -23 22 -52 l36 -31 -69 -55
c-38 -30 -85 -67 -105 -82 l-36 -27 -26 52 -26 51 24 29 c14 16 25 36 25 44 0
8 9 14 21 14 12 0 42 10 69 22 58 27 75 61 57 116 -11 34 -16 37 -52 40 -29 2
-61 -7 -115 -32 -41 -19 -77 -32 -79 -30 -5 5 -9 2 64 39 147 73 224 225 195
382 -12 62 -11 66 13 112 55 100 55 196 1 252 -15 16 -59 41 -98 55 -39 15
-87 37 -106 49 -86 54 -140 75 -176 68z m169 -74 c67 -34 138 -69 157 -78 19
-9 45 -32 58 -51 20 -30 23 -44 19 -90 -3 -30 -16 -79 -29 -109 l-24 -55 -33
60 c-69 121 -223 234 -342 250 -40 5 -49 10 -49 26 0 47 52 108 92 108 16 0
84 -28 151 -61z m-539 -50 c27 -32 43 -75 32 -87 -4 -3 -11 0 -16 8 -15 23
-12 -81 6 -240 16 -139 16 -140 -6 -184 -69 -143 -341 -101 -424 66 -38 76
-37 155 3 201 46 51 158 107 124 61 -5 -5 3 2 15 16 13 14 39 53 57 85 40 73
82 105 141 105 35 0 47 -5 68 -31z m371 -44 c78 -21 142 -57 202 -114 104 -99
153 -202 153 -320 0 -182 -120 -308 -339 -357 -129 -29 -298 0 -388 66 -40 30
-109 142 -98 160 3 4 18 10 34 13 42 9 99 69 107 114 6 33 -6 214 -22 338 -5
37 -3 41 27 59 90 53 216 69 324 41z m-328 -769 c100 -50 281 -60 401 -22 18
6 22 4 22 -13 0 -22 -12 -26 -150 -47 l-85 -13 80 4 c44 3 96 10 115 15 19 6
53 10 76 10 34 0 43 -4 52 -25 7 -14 12 -33 12 -42 0 -14 -2 -14 -15 3 -14 18
-14 17 -4 -8 10 -24 9 -31 -7 -49 l-19 -21 -13 29 -12 28 6 -32 c5 -29 2 -34
-21 -43 -52 -20 -170 -6 -280 34 -11 4 -7 0 10 -10 43 -25 122 -44 185 -44 43
-1 61 -6 81 -24 25 -22 26 -27 18 -70 -20 -108 -82 -194 -176 -243 -72 -38
-151 -55 -214 -47 -47 6 -49 8 -50 38 0 25 -4 19 -18 -29 -20 -70 -47 -125
-61 -125 -6 0 -10 -10 -10 -22 0 -21 -26 -58 -41 -58 -5 0 -6 8 -2 18 4 11 0
10 -11 -5 -19 -25 -40 -28 -81 -13 l-26 10 23 22 c13 13 17 18 8 11 -31 -23
-53 -19 -73 15 -27 45 -14 70 74 150 38 35 74 74 81 85 10 20 10 21 -5 8 -22
-18 -39 -4 -66 53 -32 65 -27 104 30 232 28 64 61 155 72 204 21 89 22 89 42
71 11 -10 34 -26 52 -35z m661 22 c15 -15 15 -50 0 -83 -14 -31 -24 -31 -49
-2 l-19 22 15 -30 c16 -33 12 -38 -42 -50 -27 -5 -33 -3 -33 10 0 25 -46 65
-77 66 -22 0 -12 8 52 39 83 40 132 49 153 28z m75 -134 c16 -19 27 -38 24
-41 -6 -5 -66 57 -67 70 0 16 17 5 43 -29z m242 -153 l190 -99 3 -77 3 -78
-70 -69 -70 -70 -199 7 -198 7 -20 -48 c-10 -27 -19 -56 -19 -64 0 -8 -11 -17
-24 -18 -13 -2 -21 0 -19 5 51 104 59 125 50 136 -16 20 -95 268 -87 275 32
33 243 191 255 191 8 0 101 -44 205 -98z m-495 29 c0 -5 -2 -10 -4 -10 -3 0
-8 5 -11 10 -3 6 -1 10 4 10 6 0 11 -4 11 -10z m-30 -396 c0 -14 8 -25 20 -29
28 -9 43 -42 34 -73 l-7 -27 -7 25 c-8 24 -8 24 -9 -5 -2 -49 -36 -74 -44 -32
-4 20 -4 19 -6 -4 -1 -29 -17 -39 -60 -39 -39 0 -60 28 -80 107 -10 37 -21 75
-25 84 -5 11 7 24 43 48 28 18 54 37 57 43 11 17 84 -69 84 -98z m375 -34 c-3
-5 -12 -10 -20 -10 -8 0 -17 5 -20 10 -4 6 5 10 20 10 15 0 24 -4 20 -10z m72
-110 c27 0 34 -5 39 -26 12 -49 -38 -107 -80 -91 -20 8 -21 56 -1 84 l15 22
-105 3 -105 3 0 -28 c0 -30 -39 -77 -63 -77 -41 0 -45 62 -7 100 19 19 30 20
148 15 70 -3 142 -5 159 -5z m78 -10 c3 -5 -1 -10 -9 -10 -8 0 -18 5 -21 10
-3 6 1 10 9 10 8 0 18 -4 21 -10z"/>
<path d="M1164 1931 c3 -5 18 -11 33 -14 26 -5 26 -4 8 9 -21 15 -49 19 -41 5z"/>
<path d="M881 1897 c-14 -6 -26 -18 -29 -25 -2 -7 10 -4 32 9 50 29 47 42 -3
16z"/>
<path d="M1192 1824 c-28 -20 -30 -76 -3 -103 19 -19 18 -19 -3 -30 -20 -11
-20 -11 4 -6 14 2 43 5 65 6 23 1 31 4 17 6 -21 4 -21 6 -7 26 8 12 15 32 15
45 0 21 -2 23 -16 12 -12 -11 -18 -10 -32 4 -16 16 -16 18 1 30 16 12 16 14 1
20 -20 8 -16 9 -42 -10z"/>
<path d="M934 1776 c-34 -28 -38 -84 -9 -116 49 -54 135 18 106 90 -9 24 -10
24 -10 3 -1 -28 -18 -38 -36 -23 -21 18 -18 41 6 47 16 4 17 8 7 14 -21 14
-35 11 -64 -15z"/>
<path d="M1204 1666 c-45 -20 -51 -36 -24 -58 46 -37 120 -13 120 39 0 34 -42
42 -96 19z m41 -16 c-27 -12 -35 -12 -35 0 0 6 12 10 28 9 24 0 25 -1 7 -9z"/>
<path d="M1360 1595 c0 -28 -40 -75 -64 -75 -8 0 -17 8 -19 18 -4 13 -5 13 -6
-4 -1 -22 -54 -65 -104 -83 -37 -14 -83 -14 -110 0 -33 17 -77 61 -71 70 3 5
-1 6 -9 4 -10 -5 -12 -19 -6 -69 16 -129 57 -183 118 -152 15 8 34 23 42 32 9
11 9 15 2 10 -8 -4 -13 -2 -13 7 0 8 -6 17 -13 20 -17 6 -68 -3 -84 -15 -16
-13 -28 17 -37 92 -6 50 -6 53 8 36 29 -36 70 -56 116 -56 51 0 116 27 144 59
11 11 30 21 43 21 34 0 73 42 73 80 0 16 -2 30 -5 30 -3 0 -5 -11 -5 -25z
m-250 -250 c0 -28 -71 -48 -85 -25 -10 16 13 38 43 42 33 5 42 1 42 -17z"/>
<path d="M1386 1207 c3 -10 9 -15 12 -12 3 3 0 11 -7 18 -10 9 -11 8 -5 -6z"/>
<path d="M1495 1040 c-3 -5 -1 -10 4 -10 6 0 11 5 11 10 0 6 -2 10 -4 10 -3 0
-8 -4 -11 -10z"/>
<path d="M1527 1044 c7 -3 9 -13 6 -22 -4 -13 -3 -14 5 -4 7 11 21 8 71 -17
33 -17 61 -29 61 -26 0 6 -137 75 -147 74 -5 0 -3 -3 4 -5z"/>
<path d="M1454 1008 l-19 -23 23 19 c21 18 27 26 19 26 -2 0 -12 -10 -23 -22z"/>
<path d="M1409 973 c-13 -16 -12 -17 4 -4 16 13 21 21 13 21 -2 0 -10 -8 -17
-17z"/>
<path d="M1364 938 l-19 -23 23 19 c21 18 27 26 19 26 -2 0 -12 -10 -23 -22z"/>
<path d="M1312 900 c-25 -21 -22 -41 6 -39 14 1 14 2 -1 6 -18 4 -17 6 4 29
27 29 23 31 -9 4z"/>
<path d="M1800 905 c0 -7 61 -37 66 -33 2 3 -12 12 -31 21 -19 9 -35 15 -35
12z"/>
<path d="M1348 853 c7 -3 16 -2 19 1 4 3 -2 6 -13 5 -11 0 -14 -3 -6 -6z"/>
<path d="M1825 818 l-40 -43 43 40 c39 36 47 45 39 45 -2 0 -21 -19 -42 -42z"/>
<path d="M1388 843 c7 -3 16 -2 19 1 4 3 -2 6 -13 5 -11 0 -14 -3 -6 -6z"/>
<path d="M1825 790 c-32 -33 -57 -61 -54 -63 2 -1 31 26 63 60 75 80 69 82 -9
3z"/>
<path d="M1318 833 c7 -3 16 -2 19 1 4 3 -2 6 -13 5 -11 0 -14 -3 -6 -6z"/>
<path d="M1428 833 c7 -3 16 -2 19 1 4 3 -2 6 -13 5 -11 0 -14 -3 -6 -6z"/>
<path d="M1358 823 c7 -3 16 -2 19 1 4 3 -2 6 -13 5 -11 0 -14 -3 -6 -6z"/>
<path d="M1468 823 c7 -3 16 -2 19 1 4 3 -2 6 -13 5 -11 0 -14 -3 -6 -6z"/>
<path d="M1398 813 c7 -3 16 -2 19 1 4 3 -2 6 -13 5 -11 0 -14 -3 -6 -6z"/>
<path d="M1508 813 c7 -3 16 -2 19 1 4 3 -2 6 -13 5 -11 0 -14 -3 -6 -6z"/>
<path d="M1555 810 c-19 -8 -19 -9 3 -9 12 -1 22 4 22 9 0 6 -1 10 -2 9 -2 0
-12 -4 -23 -9z"/>
<path d="M1438 803 c7 -3 16 -2 19 1 4 3 -2 6 -13 5 -11 0 -14 -3 -6 -6z"/>
<path d="M1478 793 c7 -3 16 -2 19 1 4 3 -2 6 -13 5 -11 0 -14 -3 -6 -6z"/>
<path d="M1518 783 c7 -3 16 -2 19 1 4 3 -2 6 -13 5 -11 0 -14 -3 -6 -6z"/>
<path d="M1306 760 c3 -14 11 -32 16 -40 6 -10 7 -7 2 10 -3 14 -11 32 -16 40
-6 10 -7 7 -2 -10z"/>
<path d="M1558 773 c7 -3 16 -2 19 1 4 3 -2 6 -13 5 -11 0 -14 -3 -6 -6z"/>
<path d="M1598 763 c7 -3 16 -2 19 1 4 3 -2 6 -13 5 -11 0 -14 -3 -6 -6z"/>
<path d="M1718 763 c7 -3 16 -2 19 1 4 3 -2 6 -13 5 -11 0 -14 -3 -6 -6z"/>
<path d="M1678 743 c7 -3 16 -2 19 1 4 3 -2 6 -13 5 -11 0 -14 -3 -6 -6z"/>
<path d="M1881 735 c0 -12 -25 -45 -55 -74 l-54 -54 -5 29 c-4 29 -4 29 -6 -3
0 -18 3 -33 7 -33 4 0 34 26 66 59 40 41 56 64 53 77 -4 17 -5 17 -6 -1z"/>
<path d="M1727 733 c6 -5 14 -29 16 -53 l4 -45 -1 49 c-1 35 -5 51 -16 53 -10
3 -11 2 -3 -4z"/>
<path d="M1353 630 c2 -8 12 -16 23 -17 13 -2 15 -1 4 4 -8 3 -19 11 -23 17
-6 7 -7 6 -4 -4z"/>
<path d="M1508 603 c23 -2 59 -2 80 0 20 2 1 4 -43 4 -44 0 -61 -2 -37 -4z"/>
<path d="M1720 600 c-9 -6 -10 -10 -3 -10 6 0 15 5 18 10 8 12 4 12 -15 0z"/>
<path d="M0 85 l0 -85 1080 0 1080 0 0 85 0 85 -1080 0 -1080 0 0 -85z m218
13 c14 5 15 4 2 -10 -9 -10 -17 -12 -21 -6 -4 6 -9 5 -12 -3 -3 -8 -4 -4 -4 8
1 14 5 19 10 14 5 -5 17 -7 25 -3z m78 3 c-18 -7 -18 -8 -3 -14 9 -3 17 -11
17 -16 0 -14 -29 -21 -36 -9 -4 6 -3 8 4 4 6 -3 13 -2 16 3 3 5 -1 11 -9 15
-23 8 -18 26 8 25 20 0 20 -1 3 -8z m31 -28 c-3 -10 -5 -4 -5 12 0 17 2 24 5
18 2 -7 2 -21 0 -30z m112 21 c4 3 7 -3 7 -13 0 -10 -6 -18 -13 -18 -8 0 -13
11 -12 26 0 14 3 20 6 13 2 -6 8 -10 12 -8z m-41 -5 c-9 -6 -8 -12 3 -25 13
-16 12 -16 -8 -6 -14 8 -24 9 -28 2 -9 -15 -25 -2 -25 20 0 14 7 18 35 17 19
-1 29 -4 23 -8z m1324 -13 c7 4 8 2 4 -5 -9 -13 -26 -5 -25 12 0 9 2 8 6 -1 2
-6 10 -9 15 -6z m220 5 c8 12 9 12 6 0 -6 -22 -28 -25 -27 -4 0 12 2 14 6 4 5
-11 7 -11 15 0z m38 -12 c0 -6 -4 -7 -10 -4 -5 3 -10 11 -10 16 0 6 5 7 10 4
6 -3 10 -11 10 -16z m41 6 c11 6 11 5 2 -5 -12 -14 -33 -6 -33 13 0 8 3 7 9
-2 5 -8 14 -10 22 -6z m60 -2 c13 -16 12 -17 -3 -4 -12 9 -18 10 -18 2 0 -6
-5 -11 -11 -11 -8 0 -8 5 1 15 15 19 15 19 31 -2z m-1957 -9 c3 -8 2 -12 -4
-9 -6 3 -10 10 -10 16 0 14 7 11 14 -7z m1466 6 c0 -5 -2 -10 -4 -10 -3 0 -8
5 -11 10 -3 6 -1 10 4 10 6 0 11 -4 11 -10z m290 0 c-20 -13 -33 -13 -25 0 3
6 14 10 23 10 15 0 15 -2 2 -10z"/>
<path d="M350 74 c0 -8 5 -12 10 -9 6 3 10 10 10 16 0 5 -4 9 -10 9 -5 0 -10
-7 -10 -16z"/>
</g>
</svg>
